<svg width="20" height="20" viewBox="0 0 20 20" fill="none" xmlns="http://www.w3.org/2000/svg">
<path d="M9.99999 0.399994C4.69799 0.399994 0.399994 4.69799 0.399994 9.99999C0.399994 15.302 4.69799 19.6 9.99999 19.6C15.302 19.6 19.6 15.302 19.6 9.99999C19.6 4.69799 15.302 0.399994 9.99999 0.399994ZM13.905 8.26399C13.909 8.34599 13.91 8.42799 13.91 8.50799C13.91 11.008 12.009 13.889 8.53099 13.889C7.50329 13.8907 6.49696 13.5955 5.63299 13.039C5.77999 13.057 5.93099 13.064 6.08399 13.064C6.96999 13.064 7.78499 12.763 8.43199 12.255C8.03771 12.2473 7.65566 12.1167 7.33911 11.8815C7.02255 11.6463 6.78724 11.3183 6.66599 10.943C6.94915 10.9968 7.24084 10.9856 7.51899 10.91C7.09104 10.8235 6.70619 10.5916 6.4297 10.2537C6.15321 9.91575 6.0021 9.49261 6.00199 9.05599V9.03299C6.25699 9.17399 6.54899 9.25999 6.85899 9.26999C6.45779 9.00292 6.17378 8.59266 6.06504 8.12313C5.9563 7.65359 6.03104 7.16025 6.27399 6.74399C6.74895 7.32799 7.34125 7.80574 8.01256 8.1463C8.68387 8.48687 9.41922 8.68266 10.171 8.72099C10.0754 8.3153 10.1166 7.8894 10.288 7.5095C10.4595 7.1296 10.7516 6.81698 11.1191 6.62026C11.4865 6.42353 11.9087 6.35372 12.3199 6.42167C12.7311 6.48961 13.1084 6.69152 13.393 6.99599C13.8162 6.91227 14.222 6.75705 14.593 6.53699C14.452 6.97513 14.1567 7.34717 13.762 7.58399C14.1368 7.53885 14.5029 7.43807 14.848 7.28499C14.5945 7.66489 14.2751 7.99643 13.905 8.26399Z" fill="black"/>
</svg>
